# Made in Blockbench 4.5.2
mtllib Depthzone.mtl

o cube
v 11.4375 3.75 1
v 11.4375 3.75 0.9375
v 11.4375 0 1
v 11.4375 0 0.9375
v -10.4375 3.75 0.9375
v -10.4375 3.75 1
v -10.4375 0 0.9375
v -10.4375 0 1
vt 0 1
vt 0.68359375 1
vt 0.68359375 0.8836607142857132
vt 0 0.8836607142857132
vt 0.146484375 0.572265625
vt 0.173828125 0.572265625
vt 0.173828125 0.455078125
vt 0.146484375 0.455078125
vt 0 0.8828125
vt 0.68359375 0.8828125
vt 0.68359375 0.765625
vt 0 0.765625
vt 0.1328125 0.576171875
vt 0.18359375 0.576171875
vt 0.18359375 0.458984375
vt 0.1328125 0.458984375
vt 0.830078125 0.392578125
vt 0.146484375 0.392578125
vt 0.146484375 0.4375
vt 0.830078125 0.4375
vt 0.828125 0.4375
vt 0.14453125 0.4375
vt 0.14453125 0.390625
vt 0.828125 0.390625
vn 0 0 -1
vn 1 0 0
vn 0 0 1
vn -1 0 0
vn 0 1 0
vn 0 -1 0
usemtl m_a2681b28-5d24-8b8b-773a-0ed67981d760
f 4/4/1 7/3/1 5/2/1 2/1/1
f 3/8/2 4/7/2 2/6/2 1/5/2
f 8/12/3 3/11/3 1/10/3 6/9/3
f 7/16/4 8/15/4 6/14/4 5/13/4
f 6/20/5 1/19/5 2/18/5 5/17/5
f 7/24/6 4/23/6 3/22/6 8/21/6